<?xml version="1.0" encoding="UTF-8" standalone="no"?>
<svg
   width="128"
   height="128"
   viewBox="0 0 128 128"
   fill="none"
   version="1.1"
   id="svg1027"
   sodipodi:docname="icon.svg"
   inkscape:version="1.4.4 (dcaf3e7d, 2026-05-05)"
   inkscape:export-filename="icon.png"
   inkscape:export-xdpi="96"
   inkscape:export-ydpi="96"
   xmlns:inkscape="http://www.inkscape.org/namespaces/inkscape"
   xmlns:sodipodi="http://sodipodi.sourceforge.net/DTD/sodipodi-0.dtd"
   xmlns="http://www.w3.org/2000/svg"
   xmlns:svg="http://www.w3.org/2000/svg">
  <sodipodi:namedview
     id="namedview1029"
     pagecolor="#ffffff"
     bordercolor="#666666"
     borderopacity="1.0"
     inkscape:pageshadow="2"
     inkscape:pageopacity="0.0"
     inkscape:pagecheckerboard="0"
     showgrid="false"
     inkscape:zoom="5.27"
     inkscape:cx="49.051233"
     inkscape:cy="71.157495"
     inkscape:window-width="1920"
     inkscape:window-height="945"
     inkscape:window-x="1920"
     inkscape:window-y="52"
     inkscape:window-maximized="0"
     inkscape:current-layer="svg1027"
     inkscape:showpageshadow="2"
     inkscape:deskcolor="#d1d1d1" />
  <g
     clip-path="url(#clip0_730_27126)"
     id="g1020"
     transform="matrix(1.3061224,0,0,1.3061224,5.6611265e-7,2.0150588)">
    <path
       d="M 41.4395,69.3848 C 28.8066,67.8535 19.9062,58.7617 19.9062,46.9902 c 0,-4.7851 1.7227,-9.9531 4.5938,-13.3984 -1.2441,-3.1582 -1.0527,-9.8574 0.3828,-12.6328 3.8281,-0.4785 8.9961,1.5312 12.0586,4.3066 3.6367,-1.1484 7.4648,-1.7226 12.1543,-1.7226 4.6895,0 8.5176,0.5742 11.9629,1.6269 2.9668,-2.6797 8.2305,-4.6894 12.0586,-4.2109 1.3398,2.584 1.5312,9.2832 0.2871,12.5371 3.0625,3.6367 4.6894,8.5176 4.6894,13.4941 0,11.7715 -8.9003,20.6719 -21.7246,22.2989 3.2539,2.1054 5.4551,6.6992 5.4551,11.9629 v 9.9531 c 0,2.8711 2.3926,4.498 5.2637,3.3496 C 84.4102,87.9512 98,70.6289 98,49.1914 98,22.1074 75.9883,6.69539e-7 48.9043,4.309e-7 21.8203,1.92261e-7 -1.9479e-7,22.1074 -4.3343e-7,49.1914 -6.20631e-7,70.4375 13.4941,88.0469 31.6777,94.6504 c 2.584,0.957 5.0723,-0.7656 5.0723,-3.3496 v -7.6563 c -1.3398,0.5743 -3.0625,0.9571 -4.5938,0.9571 -6.3164,0 -10.0488,-3.4453 -12.7285,-9.8575 -1.0527,-2.5839 -2.2011,-4.1152 -4.4023,-4.4023 -1.1484,-0.0957 -1.5313,-0.5742 -1.5313,-1.1484 0,-1.1485 1.9141,-2.0098 3.8282,-2.0098 2.7754,0 5.1679,1.7227 7.6562,5.2637 1.9141,2.7754 3.9238,4.0195 6.3164,4.0195 2.3926,0 3.9238,-0.8613 6.125,-3.0625 1.627,-1.627 2.8711,-3.0625 4.0196,-4.0195 z"
       fill="#000000"
       id="path1018" />
  </g>
  <defs
     id="defs1025">
    <clipPath
       id="clip0_730_27126">
      <rect
         width="98"
         height="96"
         fill="#ffffff"
         id="rect1022"
         x="0"
         y="0" />
    </clipPath>
  </defs>
  <style
     type="text/css"
     id="style1172">
	.st0{fill:#8E191C;}
	.st1{fill:#808184;}
</style>
  <path
     class="st0"
     d="m 51.998278,79.765948 c 0,2.387258 0,4.535782 0,6.923021 -5.12357,0 -9.92696,0 -15.050567,0 0,-24.588653 0,-49.177292 0,-73.527222 0.640463,-0.238719 14.410103,-0.238719 15.691003,0 0,10.98134 0,21.723957 0,32.705282 0.640466,0 0.640466,-0.238724 0.960682,-0.238724 1.601118,-1.432346 3.202263,-2.625945 5.443844,-3.580849 2.882019,-1.432348 6.404472,-2.387243 9.926957,-2.864699 2.241577,-0.238724 4.483182,-0.477451 7.044956,-0.238724 8.005623,0.238724 15.050589,2.625967 20.494371,6.923017 4.162966,3.34214 6.404536,7.161725 7.685416,11.458782 0.64043,2.387242 0.96068,5.013231 0.96068,7.639174 -0.32025,5.013231 -1.92135,9.54901 -5.764072,13.607341 -4.162932,4.774479 -10.24718,7.6392 -17.612362,8.832801 -2.882036,0.477462 -6.08428,0.716168 -8.966289,0.716168 -4.483169,-0.238706 -8.646084,-0.954874 -12.488757,-2.625966 -2.882016,-1.19362 -5.443845,-3.103418 -7.365179,-5.251961 -0.320247,-0.238716 -0.640435,-0.477441 -0.960683,-0.477441 0.320248,0 0,0 0,0 z m 18.573028,-2.38724 c 1.280939,0 2.561825,-0.238703 3.842727,-0.238703 4.483117,-0.716217 8.325843,-2.387264 10.88763,-5.251955 3.842705,-3.819608 4.483146,-8.355389 2.882047,-12.891148 -1.280894,-3.819586 -4.483181,-6.6843 -9.28656,-8.355367 -3.842675,-1.432345 -8.005596,-1.671071 -12.168544,-1.193622 -5.443785,0.716173 -9.606702,2.864689 -12.488746,6.68432 -2.5618,3.342118 -3.202262,6.922979 -1.921334,10.503864 0.960654,3.34214 3.202234,5.968105 7.044933,8.116644 3.842698,1.909793 7.365147,2.625967 11.207847,2.625967 z"
     id="path1174-3"
     style="fill:#ffffff;fill-opacity:1;stroke:#ffffff;stroke-width:0;stroke-dasharray:none;stroke-opacity:1" />
  <path
     class="st0"
     d="m 50.386471,79.5734 c 0,2.322719 0,4.413148 0,6.735846 -3.970738,0 -7.693336,0 -11.664101,0 0,-23.923856 0,-47.847698 0,-71.539282 0.496356,-0.232264 11.167745,-0.232264 12.160435,0 0,10.684439 0,21.13661 0,31.821035 0.496355,0 0.496355,-0.23227 0.744522,-0.23227 1.240857,-1.393619 2.481735,-2.554947 4.218947,-3.484033 2.233547,-1.393623 4.963427,-2.3227 7.693332,-2.787248 1.73721,-0.232268 3.47444,-0.464542 5.4598,-0.232268 6.20431,0.232268 11.66411,2.554968 15.88301,6.73584 3.22626,3.251778 4.96347,6.968095 5.95616,11.148973 0.49634,2.322698 0.74453,4.877688 0.74453,7.432635 -0.24819,4.877688 -1.48905,9.290836 -4.46714,13.239444 -3.22624,4.645397 -7.9415,7.432656 -13.64947,8.593984 -2.23356,0.464561 -4.71528,0.696809 -6.94882,0.696809 -3.47443,-0.232248 -6.700664,-0.929058 -9.678712,-2.554968 -2.233546,-1.161349 -4.218947,-3.019508 -5.707971,-5.109957 -0.248188,-0.23227 -0.496334,-0.46454 -0.744522,-0.46454 0.248188,0 0,0 0,0 z m 14.393985,-2.322698 c 0.99272,0 1.9854,-0.232249 2.97809,-0.232249 3.47439,-0.696852 6.45248,-2.32272 8.43785,-5.109958 2.97807,-3.716338 3.47441,-8.129486 2.23357,-12.542613 -0.99269,-3.716317 -3.47444,-6.503577 -7.19703,-8.129465 -2.97805,-1.393619 -6.20429,-1.625889 -9.43055,-1.16135 -4.2189,0.69681 -7.445136,2.787238 -9.678703,6.503598 -1.98538,3.251757 -2.481735,6.735804 -1.489024,10.219873 0.744501,3.251778 2.481713,5.806746 5.459782,7.897195 2.978069,1.858159 5.707945,2.554969 8.686015,2.554969 z"
     id="path1174"
     style="stroke:#ffffff;stroke-width:0;stroke-dasharray:none;stroke-opacity:1" />
</svg>
