<?xml version="1.0" encoding="UTF-8" standalone="no"?>
<svg
   width="128"
   height="128"
   viewBox="0 0 128 128"
   fill="none"
   version="1.1"
   id="svg1027"
   sodipodi:docname="icon.svg"
   inkscape:version="1.4.4 (dcaf3e7d, 2026-05-05)"
   inkscape:export-filename="icon"
   inkscape:export-xdpi="96"
   inkscape:export-ydpi="96"
   xmlns:inkscape="http://www.inkscape.org/namespaces/inkscape"
   xmlns:sodipodi="http://sodipodi.sourceforge.net/DTD/sodipodi-0.dtd"
   xmlns="http://www.w3.org/2000/svg"
   xmlns:svg="http://www.w3.org/2000/svg">
  <sodipodi:namedview
     id="namedview1029"
     pagecolor="#ffffff"
     bordercolor="#666666"
     borderopacity="1.0"
     inkscape:pageshadow="2"
     inkscape:pageopacity="0.0"
     inkscape:pagecheckerboard="0"
     showgrid="false"
     inkscape:zoom="3.47"
     inkscape:cx="49.135447"
     inkscape:cy="25.072046"
     inkscape:window-width="1920"
     inkscape:window-height="945"
     inkscape:window-x="1920"
     inkscape:window-y="52"
     inkscape:window-maximized="0"
     inkscape:current-layer="svg1027"
     inkscape:showpageshadow="2"
     inkscape:deskcolor="#d1d1d1" />
  <g
     clip-path="url(#clip0_730_27126)"
     id="g1020"
     transform="matrix(1.3061224,0,0,1.3061224,5.6611265e-7,2.0150588)">
    <path
       d="M 41.4395,69.3848 C 28.8066,67.8535 19.9062,58.7617 19.9062,46.9902 c 0,-4.7851 1.7227,-9.9531 4.5938,-13.3984 -1.2441,-3.1582 -1.0527,-9.8574 0.3828,-12.6328 3.8281,-0.4785 8.9961,1.5312 12.0586,4.3066 3.6367,-1.1484 7.4648,-1.7226 12.1543,-1.7226 4.6895,0 8.5176,0.5742 11.9629,1.6269 2.9668,-2.6797 8.2305,-4.6894 12.0586,-4.2109 1.3398,2.584 1.5312,9.2832 0.2871,12.5371 3.0625,3.6367 4.6894,8.5176 4.6894,13.4941 0,11.7715 -8.9003,20.6719 -21.7246,22.2989 3.2539,2.1054 5.4551,6.6992 5.4551,11.9629 v 9.9531 c 0,2.8711 2.3926,4.498 5.2637,3.3496 C 84.4102,87.9512 98,70.6289 98,49.1914 98,22.1074 75.9883,6.69539e-7 48.9043,4.309e-7 21.8203,1.92261e-7 -1.9479e-7,22.1074 -4.3343e-7,49.1914 -6.20631e-7,70.4375 13.4941,88.0469 31.6777,94.6504 c 2.584,0.957 5.0723,-0.7656 5.0723,-3.3496 v -7.6563 c -1.3398,0.5743 -3.0625,0.9571 -4.5938,0.9571 -6.3164,0 -10.0488,-3.4453 -12.7285,-9.8575 -1.0527,-2.5839 -2.2011,-4.1152 -4.4023,-4.4023 -1.1484,-0.0957 -1.5313,-0.5742 -1.5313,-1.1484 0,-1.1485 1.9141,-2.0098 3.8282,-2.0098 2.7754,0 5.1679,1.7227 7.6562,5.2637 1.9141,2.7754 3.9238,4.0195 6.3164,4.0195 2.3926,0 3.9238,-0.8613 6.125,-3.0625 1.627,-1.627 2.8711,-3.0625 4.0196,-4.0195 z"
       fill="#000000"
       id="path1018" />
  </g>
  <defs
     id="defs1025">
    <clipPath
       id="clip0_730_27126">
      <rect
         width="98"
         height="96"
         fill="#ffffff"
         id="rect1022"
         x="0"
         y="0" />
    </clipPath>
  </defs>
  <style
     type="text/css"
     id="style1172">
	.st0{fill:#8E191C;}
	.st1{fill:#808184;}
</style>
  <path
     class="st0"
     d="m 100.97508,116.90502 c 0,1.09581 0,2.08203 0,3.17783 -1.87331,0 -3.629553,0 -5.502876,0 0,-11.28677 0,-22.573533 0,-33.750722 0.23417,-0.109577 5.268706,-0.109577 5.737036,0 0,5.040693 0,9.971806 0,15.012492 0.23417,0 0.23417,-0.10958 0.35125,-0.10958 0.58541,-0.65748 1.17083,-1.20537 1.99041,-1.643693 1.05374,-0.657482 2.34164,-1.095801 3.62955,-1.314965 0.81958,-0.109579 1.63917,-0.219161 2.57582,-0.109579 2.92706,0.109579 5.50288,1.20538 7.49327,3.177827 1.52208,1.53412 2.34166,3.2874 2.80999,5.25985 0.23416,1.0958 0.35125,2.30119 0.35125,3.50656 -0.11709,2.30119 -0.7025,4.38322 -2.1075,6.24609 -1.52207,2.1916 -3.74663,3.50657 -6.43953,4.05446 -1.05375,0.21917 -2.22457,0.32874 -3.27831,0.32874 -1.63916,-0.10957 -3.16123,-0.43831 -4.56621,-1.20538 -1.05374,-0.5479 -1.99041,-1.42454 -2.6929,-2.41077 -0.11709,-0.10958 -0.23416,-0.21916 -0.35125,-0.21916 0.11709,0 0,0 0,0 z m 6.79078,-1.0958 c 0.46834,0 0.93667,-0.10957 1.405,-0.10957 1.63914,-0.32876 3.04414,-1.09581 3.9808,-2.41077 1.40499,-1.75329 1.63915,-3.83532 1.05375,-5.91734 -0.46833,-1.75328 -1.63917,-3.06825 -3.39541,-3.83531 -1.40498,-0.65748 -2.92705,-0.76706 -4.44913,-0.5479 -1.99039,0.32874 -3.51246,1.31496 -4.56621,3.06826 -0.93666,1.53411 -1.17083,3.17781 -0.70249,4.82152 0.35124,1.53412 1.17082,2.7395 2.57581,3.72573 1.40499,0.87664 2.69289,1.20538 4.09788,1.20538 z"
     id="path1174"
     style="stroke:#ffffff;stroke-width:0.547947;stroke-dasharray:none;stroke-opacity:1" />
</svg>
